# xmcd
#
# Track frame offsets:
#	150
#	13666
#	24090
#	36449
#	48254
#	58529
#	73543
#	85239
#	99215
#	110454
#	127108
#	140189
#	156717
#	169803
#	186973
#	199547
#	216856
#	230230
#	251396
#	263803
#
# Disc length: 3730 seconds
#
# Revision: 1
# Processed by: cddbd v1.5.1PL0 Copyright (c) Steve Scherf et al.
# Submitted via: EasyCDDAExtractor 5.1.0
#
DISCID=210e9014
DTITLE=Unknown - Country Workout
DYEAR=1999
DGENRE=Country
TTITLE0=I'll Give You Something To Drink About
TTITLE1=Western Women
TTITLE2=Achy Breaky Heart
TTITLE3=A Little More Love
TTITLE4=Dizzy
TTITLE5=Locomotion
TTITLE6=I Brake For Brunettes
TTITLE7=What They're Talking About
TTITLE8=Running Bear
TTITLE9=Shut Up And Drive
TTITLE10=Cotton Eye Joe
TTITLE11=Swamp Thing
TTITLE12=Thanks To You
TTITLE13=Rattlesnake Shake
TTITLE14=5 6 7 8
TTITLE15=Dance The Night Away
TTITLE16=Honky Tonk Dancing Machine
TTITLE17=Rocky Top
TTITLE18=Something Stupid
TTITLE19=An Out of Control Raging Fire
EXTD=
EXTT0=
EXTT1=
EXTT2=
EXTT3=
EXTT4=
EXTT5=
EXTT6=
EXTT7=
EXTT8=
EXTT9=
EXTT10=
EXTT11=
EXTT12=
EXTT13=
EXTT14=
EXTT15=
EXTT16=
EXTT17=
EXTT18=
EXTT19=
PLAYORDER=
